PathFileType	4	(X/Y/Z)	C:/Users/opensim2020/Desktop/walking_exp_matlab/subject02_walking11_straight_01.trc																																																																																																																												
DataRate	CameraRate	NumFrames	NumMarkers	Units	OrigDataRate	OrigDataStartFrame	OrigNumFrames																																																																																																																								
100	100	8	42	mm	100	800	267																																																																																																																								
Frame#	Time	LFHD			RFHD			LBHD			RBHD			C7			T10			CLAV			STRN			RBAK			LSHO			LUPA			LELB			LFRM			LWRA			LWRB			LFIN			RSHO			RUPA			RELB			RFRM			RWRA			RWRB			RFIN			LASI			RASI			LPSI			RPSI			LTHI			LKNE			LTIB			LANK			LHEE			LTOE			RTHI			RKNE			RTIB			RANK			RHEE			RTOE			*39			*40			*41		
		X1	Y1	Z1	X2	Y2	Z2	X3	Y3	Z3	X4	Y4	Z4	X5	Y5	Z5	X6	Y6	Z6	X7	Y7	Z7	X8	Y8	Z8	X9	Y9	Z9	X10	Y10	Z10	X11	Y11	Z11	X12	Y12	Z12	X13	Y13	Z13	X14	Y14	Z14	X15	Y15	Z15	X16	Y16	Z16	X17	Y17	Z17	X18	Y18	Z18	X19	Y19	Z19	X20	Y20	Z20	X21	Y21	Z21	X22	Y22	Z22	X23	Y23	Z23	X24	Y24	Z24	X25	Y25	Z25	X26	Y26	Z26	X27	Y27	Z27	X28	Y28	Z28	X29	Y29	Z29	X30	Y30	Z30	X31	Y31	Z31	X32	Y32	Z32	X33	Y33	Z33	X34	Y34	Z34	X35	Y35	Z35	X36	Y36	Z36	X37	Y37	Z37	X38	Y38	Z38	X39	Y39	Z39	X40	Y40	Z40	X41	Y41	Z41	X42	Y42	Z42
																																																																																																																															
67	0.66	-742.14911	1751.77417	1383.46106	-731.76819	1736.27576	1526.55396	-845.33795	1642.36401	1380.45154	-846.83136	1621.57617	1522.32202	-870.61383	1514.05933	1450.76465	-916.83563	1240.31104	1453.62341	-727.91577	1454.75281	1440.17615	-671.16833	1283.17529	1455.81946	-923.23218	1343.41675	1518.28857	-798.37799	1487.73987	1269.71851	-821.39679	1287.12537	1184.77307	-833.28253	1149.14941	1171.74622	-837.20337	1019.87866	1149.99243	-795.58496	887.2121	1170.1156	-840.39215	897.85602	1138.66382	-830.80365	832.22711	1129.91431	-788.73151	1491.05615	1637.27844	-809.57056	1300.93127	1725.19226	-787.9715	1155.08228	1744.15784	-741.22742	1043.11462	1760.61084	-675.16565	925.76172	1735.43665	-718.89209	914.45941	1769.48413	-671.54535	859.26263	1769.48877	-663.22498	992.65118	1330.18457	-691.10742	963.65466	1582.58862	-882.047	1025.15588	1386.33142	-898.76398	1018.3634	1500.50696	-690.65033	680.19202	1271.95569	-703.86847	475.90778	1305.62817	-742.94562	283.53799	1308.81482	-726.2431	64.43008	1355.25806	-762.3515	37.616	1407.3241	-570.08923	31.79884	1345.42834	-784.55511	662.77197	1662.18506	-782.44495	464.07715	1663.99988	-927.95227	353.73795	1654.5177	-1063.03162	220.29424	1610.08081	-1106.57007	199.79764	1541.81287	-1016.99866	68.44139	1650.0835	-854.84253	1785.96326	1477.02136	2845.19897	1034.16821	-3360.29565	NaN	NaN	NaN
68	0.67	-735.0918	1752.85156	1381.84155	-724.47455	1737.38037	1524.96924	-837.77875	1643.06934	1378.96265	-839.00916	1622.22046	1520.77039	-862.40228	1515.12646	1448.79187	-909.04724	1241.44629	1451.26257	-719.9068	1455.47266	1438.66675	-663.63965	1283.67444	1454.33289	-915.35083	1343.99854	1515.53223	-789.22693	1488.67432	1267.88721	-810.78802	1287.82312	1182.82483	-821.56555	1149.65613	1169.09143	-823.83551	1020.27979	1147.62329	-778.42639	888.46326	1169.80896	-824.77386	898.05115	1137.05676	-813.10699	832.97742	1128.14575	-781.30499	1491.63342	1635.75281	-802.60388	1301.44177	1723.41418	-781.33838	1155.69678	1742.51257	-735.21002	1043.41296	1758.70715	-669.02655	925.93719	1733.93774	-712.99878	914.78131	1767.76367	-665.68201	859.62073	1768.01147	-655.9472	992.09436	1328.86963	-684.41382	964.78827	1581.99121	-874.68188	1026.25378	1384.05286	-892.14728	1019.24908	1497.72375	-687.32379	680.11029	1270.75	-702.09558	475.89587	1304.75452	-741.70795	283.62018	1308.20361	-726.44147	64.58437	1355.26563	-762.62134	37.73035	1407.2655	-570.19031	31.85428	1345.39868	-771.94073	664.11633	1661.50342	-766.02856	465.80573	1662.85999	-911.30951	355.42111	1652.10022	-1045.17419	220.67915	1607.23694	-1088.03601	198.20468	1538.58093	-997.81122	71.27443	1651.88232	-847.83105	1786.55371	1475.5	2845.90161	1034.24878	-3357.45117	NaN	NaN	NaN
69	0.68	-727.92859	1753.90637	1380.34778	-717.11322	1738.43384	1523.45703	-830.21954	1643.66284	1377.51831	-831.21228	1622.77271	1519.35034	-854.2077	1516.18628	1446.83215	-901.30664	1242.55933	1448.88647	-711.94281	1456.16443	1437.27771	-656.00476	1284.20398	1452.93347	-907.84753	1345.09204	1513.11304	-780.09705	1489.64819	1266.12744	-799.82031	1288.46985	1180.69409	-809.32813	1150.11267	1166.58545	-809.58234	1020.67932	1145.74768	-762.62036	889.89215	1169.07959	-808.07648	898.09924	1135.84363	-794.97321	833.54047	1127.30835	-773.76068	1492.26538	1634.16675	-795.6416	1302.20825	1721.55725	-774.62665	1156.25171	1740.71838	-728.92151	1043.87537	1757.06921	-663.33978	926.29865	1732.11816	-707.12915	915.22119	1766.12122	-659.91248	859.89844	1766.41394	-648.71539	991.7915	1327.61865	-677.75012	966.03387	1581.35999	-867.59229	1027.42627	1381.98499	-885.45178	1020.26581	1495.25696	-683.60986	680.05176	1269.76965	-700.28223	475.76819	1303.91309	-741.16656	283.80637	1307.901	-726.57019	64.60189	1355.32703	-762.65045	37.65802	1407.33228	-570.24518	31.7793	1345.29993	-759.4035	665.53717	1660.84875	-750.0108	467.45892	1661.70642	-894.4931	356.28326	1649.72156	-1026.80127	220.0705	1604.46082	-1068.85193	195.55836	1535.58105	-977.62805	73.2187	1653.17737	-840.75391	1787.09814	1474.10828	NaN	NaN	NaN	NaN	NaN	NaN
70	0.69	-720.73816	1754.91577	1379.06238	-709.78253	1739.31189	1522.18579	-822.59662	1644.20349	1376.14746	-823.39679	1623.22546	1517.98511	-846.11469	1517.19666	1444.9895	-893.65375	1243.62415	1446.54199	-703.98352	1456.84277	1435.90295	-648.41632	1284.65112	1451.49097	-900.21674	1346.297	1511.01001	-771.07788	1490.70117	1264.47058	-789.57819	1289.49585	1178.47559	-797.40857	1150.87573	1164.03369	-794.95135	1020.94604	1143.89624	-747.31024	891.4082	1167.7467	-791.7475	898.72601	1134.62244	-776.98907	834.7135	1125.94812	-766.36188	1492.7937	1632.55615	-788.59912	1302.85742	1719.8031	-768.04919	1156.89185	1739.14063	-722.71387	1044.35376	1755.4137	-657.14075	926.78705	1730.84863	-701.21985	915.67499	1764.61853	-654.09943	860.39215	1764.98474	-642.07184	991.30499	1326.03186	-671.05316	967.38531	1580.54089	-861.3349	1028.66003	1380.06445	-878.57159	1021.27844	1493.15833	-679.76581	679.67474	1268.56323	-698.59851	475.68939	1303.18103	-741.0788	284.05786	1307.97693	-726.55804	64.51344	1355.46436	-762.50275	37.55997	1407.48413	-570.28589	31.74248	1345.18665	-746.86353	667.01166	1660.30542	-734.36694	469.14432	1660.42419	-877.72211	356.67029	1647.47339	-1007.97589	218.5943	1601.86694	-1049.203	191.95612	1532.82031	-956.13629	73.93776	1653.80334	-833.63861	1787.56067	1472.85938	NaN	NaN	NaN	NaN	NaN	NaN
71	0.7	-713.40063	1755.771	1377.96277	-702.41394	1740.11377	1521.01074	-814.86084	1644.78931	1374.87292	-815.62921	1623.59741	1516.70239	-838.02777	1518.10876	1443.16736	-886.10266	1244.65344	1444.25903	-696.0863	1457.4447	1434.5144	-640.88287	1285.13013	1450.04602	-892.54413	1347.04456	1508.64172	-762.09283	1491.77185	1262.85107	-778.18073	1290.41431	1176.67566	-784.80878	1151.63843	1161.78821	-780.36975	1021.7923	1142.1062	-730.5553	893.13788	1167.38757	-775.25385	899.66687	1133.59473	-758.31744	835.84973	1125.30933	-758.79437	1493.49329	1631.10498	-781.50256	1303.46521	1718.26318	-761.57916	1157.57727	1737.5675	-716.54834	1044.81824	1753.77148	-651.37506	927.23206	1729.28601	-695.3667	916.1427	1763.16138	-648.32373	860.71832	1763.52747	-635.5119	991.0719	1324.41309	-664.18378	968.88538	1579.61182	-853.77899	1029.49268	1378.76099	-871.53943	1022.26984	1491.56104	-675.71649	679.23517	1267.63086	-696.9007	475.60352	1302.56897	-741.0882	284.26584	1308.23755	-726.6178	64.56203	1355.63611	-762.55438	37.61557	1407.55432	-570.39349	31.64892	1345.00024	-734.3468	668.4942	1659.79602	-719.17676	470.58978	1658.74622	-860.90118	356.47342	1645.24036	-988.51233	216.02025	1599.41345	-1029.14319	187.47491	1530.41467	-933.58447	74.30728	1654.43188	-826.40411	1787.89893	1471.79187	2846.00513	1034.24854	-3356.80469	NaN	NaN	NaN
72	0.71	-706.07709	1756.65784	1376.91309	-695.02716	1740.73047	1519.92798	-807.14819	1645.28931	1373.69397	-807.83472	1623.87378	1515.5094	-830.03253	1518.99402	1441.44214	-878.63861	1245.67676	1442.03784	-688.31012	1457.94971	1433.13367	-633.47534	1285.48987	1448.4939	-885.04761	1347.68274	1506.27161	-753.25305	1492.82996	1261.34204	-767.15875	1291.45007	1174.76807	-772.53418	1152.59155	1159.5249	-765.39563	1022.50446	1140.48474	-713.91248	895.21643	1167.2085	-757.99738	900.31317	1132.62231	-739.48102	837.3327	1124.9845	-751.18134	1493.88733	1629.34912	-774.44922	1304.21753	1716.62915	-755.17084	1158.1936	1736.04443	-710.38037	1045.28381	1751.99597	-645.81342	927.36414	1727.62488	-689.57385	916.59607	1761.802	-642.62482	861.16479	1762.19995	-629.18585	991.07544	1322.7218	-657.17633	970.43256	1578.30774	-846.97839	1030.21143	1377.66882	-864.45111	1023.2066	1490.46985	-672.08923	678.8252	1266.69189	-695.04285	475.43265	1302.07361	-741.05762	284.53094	1308.44958	-726.66284	64.57663	1355.80884	-762.9577	37.77962	1407.29224	-570.29956	31.61339	1344.99976	-721.74927	670.04065	1659.14307	-704.07788	472.202	1657.25488	-843.93671	355.61215	1643.08191	-968.58026	212.69302	1597.11755	-1008.58411	181.98573	1528.3573	-909.87909	73.96781	1654.41882	-819.22101	1788.21777	1470.86096	2845.94751	1034.05066	-3356.92358	NaN	NaN	NaN
73	0.72	-698.74048	1757.50317	1376.00708	-687.57043	1741.26709	1519.05029	-799.52905	1645.80212	1372.573	-800.0567	1624.04736	1514.29932	-822.0719	1519.77039	1439.73804	-871.22144	1246.62842	1439.91919	-680.50018	1458.42542	1431.74365	-625.99554	1285.78381	1447.02197	-877.56049	1348.48645	1504.1886	-744.50305	1493.9574	1259.96289	-756.66589	1292.72473	1172.82288	-759.61298	1153.53296	1157.57483	-750.63745	1023.76129	1138.83826	-696.94269	897.26874	1167.0874	-740.82892	901.40936	1131.78784	-720.94818	838.80359	1124.2915	-743.81433	1494.50684	1627.84827	-767.4021	1304.7334	1715.10681	-748.89923	1158.80322	1734.60132	-704.40619	1045.80249	1750.97949	-639.74963	927.80634	1726.61011	-683.85175	917.01489	1760.53491	-637.00745	861.39429	1760.91541	-623.12164	991.33563	1320.91162	-649.90521	971.90686	1576.62378	-840.77795	1030.80383	1376.74524	-857.2674	1024.09155	1489.82947	-668.59625	678.39233	1265.91931	-693.10675	475.38492	1301.72766	-740.46686	284.78137	1308.53613	-726.68787	64.63128	1355.97607	-763.0166	37.80753	1407.38672	-570.40997	31.51884	1344.83167	-709.52618	671.46899	1658.65771	-689.3681	473.81522	1655.8269	-826.78479	354.28592	1640.87463	-948.13928	208.74518	1595.14087	-987.56531	175.8956	1526.68201	-885.01746	72.92677	1654.11377	-811.9704	1788.47192	1470.04199	2845.17261	1034.19128	-3360.38208	NaN	NaN	NaN
74	0.73	-691.34027	1758.23059	1375.24329	-680.14343	1741.66724	1518.24634	-791.67651	1646.25928	1371.52173	-792.27435	1624.19763	1513.23413	-814.10291	1520.46411	1438.14258	-863.84381	1247.48877	1437.96179	-672.70306	1458.8595	1430.52515	-618.62085	1286.06213	1445.60266	-869.79028	1349.22095	1502.32373	-735.89093	1495.08716	1258.6571	-745.48254	1293.76306	1171.1377	-747.30341	1154.66211	1155.48438	-735.44916	1024.74829	1137.63245	-680.20215	899.60876	1166.95142	-723.29199	902.76184	1131.19788	-701.76898	840.40668	1124.2179	-736.14398	1494.57141	1626.17371	-760.46875	1305.23608	1713.62817	-742.7005	1159.26538	1733.20142	-698.44531	1046.13611	1749.7229	-634.22729	928.03394	1725.45801	-678.19202	917.30774	1759.35461	-631.52856	861.70129	1759.83667	-617.21283	991.71912	1319.1366	-642.50641	973.30035	1574.58203	-834.54681	1031.18909	1376.29297	-850.12537	1024.91541	1489.68591	-665.10358	677.89246	1265.28918	-690.86969	475.27933	1301.38293	-739.17816	284.86902	1308.51294	-726.67352	64.71923	1356.16187	-761.90625	36.89596	1408.18616	-570.40259	31.45457	1344.72815	-697.37177	672.91467	1658.03003	-674.58472	475.31302	1654.16223	-809.57648	352.77853	1638.79053	-926.95428	203.90245	1593.36157	-964.92279	168.49686	1525.18921	-859.27832	71.38872	1653.63037	-804.60156	1788.60083	1469.35693	2845.27441	1034.21619	-3360.32666	NaN	NaN	NaN
